<svg xmlns="http://www.w3.org/2000/svg" xmlns:xlink="http://www.w3.org/1999/xlink" version="1.1" width="256" height="256" viewBox="0 0 256 256" xml:space="preserve">
<desc>Created with Fabric.js 1.7.22</desc>
<defs>
</defs>
<g transform="translate(128 128) scale(0.72 0.72)" style="">
	<g style="stroke: none; stroke-width: 0; stroke-dasharray: none; stroke-linecap: butt; stroke-linejoin: miter; stroke-miterlimit: 10; fill: none; fill-rule: nonzero; opacity: 1;" transform="translate(-175.05 -175.05000000000004) scale(3.89 3.89)" >
	<path d="M 80.796 67.898 H 38.328 c -5.075 0 -9.205 -4.129 -9.205 -9.204 V 31.306 c 0 -5.075 4.129 -9.204 9.205 -9.204 h 42.468 c 5.076 0 9.204 4.129 9.204 9.204 v 27.387 C 90 63.769 85.871 67.898 80.796 67.898 z M 38.328 25.548 c -3.175 0 -5.759 2.583 -5.759 5.758 v 27.387 c 0 3.175 2.583 5.759 5.759 5.759 h 42.468 c 3.175 0 5.759 -2.584 5.759 -5.759 V 31.306 c 0 -3.175 -2.584 -5.758 -5.759 -5.758 H 38.328 z" style="stroke: none; stroke-width: 1; stroke-dasharray: none; stroke-linecap: butt; stroke-linejoin: miter; stroke-miterlimit: 10; fill: rgb(0,0,0); fill-rule: nonzero; opacity: 1;" transform=" matrix(1 0 0 1 0 0) " stroke-linecap="round" />
	<path d="M 36.601 32.448 c 7.234 7.049 14.468 14.098 21.702 21.146 c 1.642 1.6 4.163 -0.915 2.518 -2.518 c -7.234 -7.049 -14.468 -14.098 -21.702 -21.146 C 37.477 28.33 34.956 30.845 36.601 32.448 L 36.601 32.448 z" style="stroke: none; stroke-width: 1; stroke-dasharray: none; stroke-linecap: butt; stroke-linejoin: miter; stroke-miterlimit: 10; fill: rgb(0,0,0); fill-rule: nonzero; opacity: 1;" transform=" matrix(1 0 0 1 0 0) " stroke-linecap="round" />
	<path d="M 60.821 53.595 c 7.234 -7.049 14.468 -14.098 21.702 -21.146 c 1.644 -1.602 -0.875 -4.119 -2.518 -2.518 c -7.234 7.049 -14.468 14.098 -21.702 21.146 C 56.659 52.679 59.178 55.196 60.821 53.595 L 60.821 53.595 z" style="stroke: none; stroke-width: 1; stroke-dasharray: none; stroke-linecap: butt; stroke-linejoin: miter; stroke-miterlimit: 10; fill: rgb(0,0,0); fill-rule: nonzero; opacity: 1;" transform=" matrix(1 0 0 1 0 0) " stroke-linecap="round" />
	<path d="M 82.443 58.134 c -4.814 -4.565 -9.628 -9.13 -14.441 -13.695 c -1.662 -1.576 -4.185 0.937 -2.518 2.518 c 4.814 4.565 9.628 9.13 14.441 13.695 C 81.588 62.228 84.11 59.714 82.443 58.134 L 82.443 58.134 z" style="stroke: none; stroke-width: 1; stroke-dasharray: none; stroke-linecap: butt; stroke-linejoin: miter; stroke-miterlimit: 10; fill: rgb(0,0,0); fill-rule: nonzero; opacity: 1;" transform=" matrix(1 0 0 1 0 0) " stroke-linecap="round" />
	<path d="M 39.329 60.652 c 4.814 -4.565 9.628 -9.13 14.441 -13.695 c 1.666 -1.58 -0.855 -4.095 -2.518 -2.518 c -4.814 4.565 -9.628 9.13 -14.441 13.695 C 35.145 59.714 37.666 62.229 39.329 60.652 L 39.329 60.652 z" style="stroke: none; stroke-width: 1; stroke-dasharray: none; stroke-linecap: butt; stroke-linejoin: miter; stroke-miterlimit: 10; fill: rgb(0,0,0); fill-rule: nonzero; opacity: 1;" transform=" matrix(1 0 0 1 0 0) " stroke-linecap="round" />
	<path d="M 24.392 32.77 c -7.557 0 -15.115 0 -22.672 0 c -2.291 0 -2.295 3.561 0 3.561 c 7.557 0 15.115 0 22.672 0 C 26.683 36.33 26.687 32.77 24.392 32.77 L 24.392 32.77 z" style="stroke: none; stroke-width: 1; stroke-dasharray: none; stroke-linecap: butt; stroke-linejoin: miter; stroke-miterlimit: 10; fill: rgb(0,0,0); fill-rule: nonzero; opacity: 1;" transform=" matrix(1 0 0 1 0 0) " stroke-linecap="round" />
	<path d="M 24.392 43.107 c -6.12 0 -12.24 0 -18.36 0 c -2.291 0 -2.295 3.561 0 3.561 c 6.12 0 12.24 0 18.36 0 C 26.683 46.668 26.687 43.107 24.392 43.107 L 24.392 43.107 z" style="stroke: none; stroke-width: 1; stroke-dasharray: none; stroke-linecap: butt; stroke-linejoin: miter; stroke-miterlimit: 10; fill: rgb(0,0,0); fill-rule: nonzero; opacity: 1;" transform=" matrix(1 0 0 1 0 0) " stroke-linecap="round" />
	<path d="M 24.392 53.67 c -4.497 0 -8.995 0 -13.492 0 c -2.291 0 -2.295 3.561 0 3.561 c 4.497 0 8.995 0 13.492 0 C 26.683 57.23 26.687 53.67 24.392 53.67 L 24.392 53.67 z" style="stroke: none; stroke-width: 1; stroke-dasharray: none; stroke-linecap: butt; stroke-linejoin: miter; stroke-miterlimit: 10; fill: rgb(0,0,0); fill-rule: nonzero; opacity: 1;" transform=" matrix(1 0 0 1 0 0) " stroke-linecap="round" />
</g>
</g>
</svg>